<?xml version="1.0" encoding="UTF-8" standalone="no"?>
<!-- Created with Inkscape (http://www.inkscape.org/) -->

<svg
   version="1.1"
   id="svg2"
   xml:space="preserve"
   width="200.46268"
   height="245.98399"
   viewBox="0 0 200.46268 245.98399"
   sodipodi:docname="avatar.ai"
   xmlns:inkscape="http://www.inkscape.org/namespaces/inkscape"
   xmlns:sodipodi="http://sodipodi.sourceforge.net/DTD/sodipodi-0.dtd"
   xmlns="http://www.w3.org/2000/svg"
   xmlns:svg="http://www.w3.org/2000/svg"><defs
     id="defs6"><clipPath
       clipPathUnits="userSpaceOnUse"
       id="clipPath16"><path
         d="M 0,184.488 H 150.347 V 0 H 0 Z"
         id="path14" /></clipPath><clipPath
       clipPathUnits="userSpaceOnUse"
       id="clipPath36"><path
         d="M 15.8922,40.239 H 150.346 V 1.06812e-4 H 15.8922 Z"
         id="path34" /></clipPath></defs><sodipodi:namedview
     id="namedview4"
     pagecolor="#ffffff"
     bordercolor="#666666"
     borderopacity="1.0"
     inkscape:pageshadow="2"
     inkscape:pageopacity="0.0"
     inkscape:pagecheckerboard="0" /><g
     id="g8"
     inkscape:groupmode="layer"
     inkscape:label="avatar"
     transform="matrix(1.3333333,0,0,-1.3333333,0,245.984)"><g
       id="g10"><g
         id="g12"
         clip-path="url(#clipPath16)"><g
           id="g18"
           transform="translate(95.4045,58.603)"><path
             d="m 0,0 c -8.482,4.627 -6.169,26.991 -6.169,26.991 l -12.703,-0.818 v 0.815 l -1.359,-0.408 -1.36,0.408 v -0.815 l -12.703,0.818 c 0,0 2.314,-22.364 -6.168,-26.991 -8.482,-4.627 -58.603,-6.94 -53.206,-58.603 h 72.077 2.719 72.077 C 58.603,-6.94 8.482,-4.627 0,0"
             style="fill:#ffae9e;fill-opacity:1;fill-rule:nonzero;stroke:none"
             id="path20" /></g><g
           id="g22"
           transform="translate(59.3299,64.3721)"><path
             d="m 0,0 c 10.147,1.512 20.287,3.073 30.42,4.681 -1.426,7.711 -0.514,16.541 -0.514,16.541 L 17.203,20.403 v 0.816 l -1.36,-0.408 -1.359,0.408 V 20.403 L 1.781,21.222 C 1.781,21.222 3.12,8.228 0,0"
             style="fill:#e18980;fill-opacity:1;fill-rule:nonzero;stroke:none"
             id="path24" /></g><g
           id="g26"
           transform="translate(106.0752,56.4686)"><path
             d="m 0,0 c -4.552,-11.882 -16.667,-20.381 -30.902,-20.381 -14.235,0 -26.35,8.499 -30.902,20.381 -17.471,-4.792 -48.185,-15.054 -43.858,-56.468 h 73.376 2.768 73.376 C 48.185,-15.054 17.471,-4.792 0,0"
             style="fill:#ffeeef;fill-opacity:1;fill-rule:nonzero;stroke:none"
             id="path28" /></g><g
           id="g30"><g
             id="g32" /><g
             id="g44"><g
               clip-path="url(#clipPath36)"
               opacity="0.100006"
               id="g42"><g
                 transform="translate(137.9979,40.239)"
                 id="g40"><path
                   d="m 0,0 c -18.742,-12.127 -41.348,-16.88 -62.37,-23.576 -19.707,-6.277 -39.661,-11.71 -59.736,-16.663 H 11.936 C 13.955,-20.908 8.339,-8.368 0,0"
                   style="fill:#352836;fill-opacity:1;fill-rule:nonzero;stroke:none"
                   id="path38" /></g></g></g></g><g
           id="g46"
           transform="translate(109.0333,55.6328)"><path
             d="M 0,0 V -55.633 H 40.9 C 44.993,-16.464 17.747,-5.164 0,0"
             style="fill:#559c9a;fill-opacity:1;fill-rule:nonzero;stroke:none"
             id="path48" /></g><g
           id="g50"
           transform="translate(41.0333,55.552)"><path
             d="M 0,0 C -17.753,-5.202 -44.691,-16.591 -40.62,-55.552 H 0 Z"
             style="fill:#559c9a;fill-opacity:1;fill-rule:nonzero;stroke:none"
             id="path52" /></g><g
           id="g54"
           transform="translate(41.5236,55.552)"><path
             d="m 0,0 v -55.552 c 0,0 -20.5,34.949 -19.5,46.949 C -18.5,3.397 -2,4.103 0,0"
             style="fill:#438685;fill-opacity:1;fill-rule:nonzero;stroke:none"
             id="path56" /></g><g
           id="g58"
           transform="translate(107.9979,55.552)"><path
             d="m 0,0 v -55.552 c 0,0 20.5,34.949 19.5,46.949 C 18.5,3.397 2,4.103 0,0"
             style="fill:#438685;fill-opacity:1;fill-rule:nonzero;stroke:none"
             id="path60" /></g><g
           id="g62"
           transform="translate(50.3365,118.33)"><path
             d="m 0,0 c -2.499,7.753 -8.417,5.958 -8.971,5.771 -0.581,-0.068 -6.698,-0.976 -5.641,-9.053 1.063,-8.126 5.777,-12.529 10.198,-11.236 C 0.136,-13.796 2.514,-7.8 0,0"
             style="fill:#ffae9e;fill-opacity:1;fill-rule:nonzero;stroke:none"
             id="path64" /></g><g
           id="g66"
           transform="translate(100.2383,118.33)"><path
             d="M 0,0 C 2.499,7.753 8.417,5.958 8.971,5.771 9.552,5.703 15.669,4.795 14.612,-3.282 13.549,-11.408 8.835,-15.811 4.414,-14.518 -0.136,-13.796 -2.514,-7.8 0,0"
             style="fill:#ffae9e;fill-opacity:1;fill-rule:nonzero;stroke:none"
             id="path68" /></g><g
           id="g70"
           transform="translate(44.2736,130.0755)"><path
             d="M 0,0 C 3.097,33.991 28.938,32.087 31.375,31.831 33.812,32.087 59.652,33.991 62.749,0 65.865,-34.193 50.635,-56.525 31.375,-55.296 12.114,-56.525 -3.116,-34.193 0,0"
             style="fill:#ffae9e;fill-opacity:1;fill-rule:nonzero;stroke:none"
             id="path72" /></g><g
           id="g74"
           transform="translate(80.104,126.0898)"><path
             d="m 0,0 c 0.43,-1.56 0.762,-3.131 1.06,-4.705 0.296,-1.575 0.546,-3.155 0.769,-4.738 0.118,-0.79 0.201,-1.585 0.303,-2.377 0.105,-0.793 0.183,-1.588 0.259,-2.383 0.168,-1.589 0.285,-3.183 0.379,-4.781 l 0.025,-0.43 -0.31,-0.191 c -1.018,-0.627 -2.051,-1.233 -3.093,-1.825 -1.051,-0.578 -2.098,-1.162 -3.192,-1.679 0.875,0.835 1.798,1.601 2.717,2.373 0.927,0.759 1.865,1.504 2.817,2.227 L 1.449,-19.13 c -0.258,1.579 -0.492,3.161 -0.676,4.748 -0.1,0.793 -0.197,1.586 -0.268,2.381 -0.074,0.796 -0.167,1.59 -0.225,2.387 -0.128,1.593 -0.23,3.189 -0.286,4.791 C -0.059,-3.222 -0.078,-1.616 0,0"
             style="fill:#863f38;fill-opacity:1;fill-rule:nonzero;stroke:none"
             id="path76" /></g><g
           id="g78"
           transform="translate(88.8224,96.8751)"><path
             d="M 0,0 C -6.152,-5.98 -16.573,-5.649 -24.466,-0.319"
             style="fill:#ffffff;fill-opacity:1;fill-rule:nonzero;stroke:none"
             id="path80" /></g><g
           id="g82"
           transform="translate(100.0175,128.6096)"><path
             d="m 0,0 c 0,0 -0.269,0.149 -0.74,0.41 -0.229,0.125 -0.507,0.277 -0.825,0.452 -0.312,0.165 -0.665,0.351 -1.049,0.554 -0.397,0.17 -0.794,0.399 -1.238,0.573 -0.215,0.095 -0.436,0.194 -0.662,0.295 -0.228,0.083 -0.461,0.167 -0.697,0.254 -0.461,0.204 -0.962,0.278 -1.44,0.447 -0.496,0.052 -0.982,0.24 -1.477,0.221 l -0.737,0.06 C -9.108,3.237 -9.35,3.229 -9.593,3.215 -10.085,3.236 -10.542,3.053 -11.017,2.994 -11.491,2.919 -11.915,2.69 -12.36,2.573 L -12.689,2.471 -12.988,2.32 c -0.204,-0.096 -0.4,-0.187 -0.589,-0.276 -0.375,-0.186 -0.76,-0.32 -1.05,-0.522 -0.298,-0.187 -0.582,-0.334 -0.814,-0.462 -0.467,-0.253 -0.766,-0.385 -0.766,-0.385 0,0 0.118,0.284 0.382,0.76 0.133,0.237 0.293,0.532 0.503,0.852 0.187,0.345 0.482,0.659 0.816,1 0.347,0.325 0.658,0.775 1.149,1.059 0.477,0.292 0.951,0.688 1.544,0.908 0.294,0.119 0.6,0.225 0.91,0.335 0.306,0.13 0.635,0.186 0.972,0.225 0.335,0.046 0.674,0.098 1.016,0.129 0.34,-0.004 0.683,-0.028 1.025,-0.047 0.694,-0.014 1.335,-0.244 1.978,-0.401 0.308,-0.111 0.604,-0.245 0.896,-0.372 0.298,-0.12 0.577,-0.259 0.831,-0.429 0.26,-0.16 0.518,-0.31 0.76,-0.473 0.226,-0.179 0.448,-0.354 0.664,-0.525 0.437,-0.33 0.768,-0.735 1.099,-1.065 0.623,-0.71 1.051,-1.362 1.304,-1.848 C -0.094,0.303 0,0 0,0"
             style="fill:#352836;fill-opacity:1;fill-rule:nonzero;stroke:none"
             id="path84" /></g><g
           id="g86"
           transform="translate(67.8286,128.6096)"><path
             d="m 0,0 c 0,0 -0.269,0.149 -0.74,0.41 -0.229,0.125 -0.507,0.277 -0.825,0.452 -0.312,0.165 -0.665,0.351 -1.049,0.554 -0.397,0.17 -0.794,0.399 -1.238,0.573 -0.215,0.095 -0.436,0.194 -0.662,0.295 -0.228,0.083 -0.461,0.167 -0.697,0.254 -0.461,0.204 -0.962,0.278 -1.44,0.447 -0.496,0.052 -0.982,0.24 -1.477,0.221 l -0.737,0.06 C -9.108,3.237 -9.35,3.229 -9.593,3.215 -10.085,3.236 -10.542,3.053 -11.017,2.994 -11.491,2.919 -11.915,2.69 -12.36,2.573 L -12.689,2.471 -12.988,2.32 c -0.204,-0.096 -0.4,-0.187 -0.589,-0.276 -0.375,-0.186 -0.76,-0.32 -1.05,-0.522 -0.298,-0.187 -0.582,-0.334 -0.814,-0.462 -0.467,-0.253 -0.766,-0.385 -0.766,-0.385 0,0 0.118,0.284 0.382,0.76 0.133,0.237 0.293,0.532 0.504,0.852 0.186,0.345 0.481,0.659 0.815,1 0.347,0.325 0.658,0.775 1.149,1.059 0.477,0.292 0.951,0.688 1.544,0.908 0.294,0.119 0.6,0.225 0.91,0.335 0.306,0.13 0.635,0.186 0.972,0.225 0.335,0.046 0.674,0.098 1.016,0.129 0.34,-0.004 0.683,-0.028 1.025,-0.047 0.694,-0.014 1.335,-0.244 1.978,-0.401 0.308,-0.111 0.604,-0.245 0.896,-0.372 0.298,-0.12 0.577,-0.259 0.831,-0.429 0.26,-0.16 0.518,-0.31 0.76,-0.473 0.226,-0.179 0.448,-0.354 0.664,-0.525 0.437,-0.33 0.768,-0.735 1.099,-1.065 0.623,-0.71 1.051,-1.362 1.304,-1.848 C -0.094,0.303 0,0 0,0"
             style="fill:#352836;fill-opacity:1;fill-rule:nonzero;stroke:none"
             id="path88" /></g><g
           id="g90"
           transform="translate(66.8075,116.2923)"><path
             d="M 0,0 C 0,0 -0.07,0.276 -0.227,0.738 -0.384,1.2 -0.628,1.85 -1.009,2.562 -1.395,3.268 -1.934,4.036 -2.686,4.596 -3.056,4.879 -3.481,5.104 -3.942,5.244 -4.169,5.324 -4.401,5.399 -4.652,5.415 -4.897,5.448 -5.14,5.5 -5.397,5.474 -5.635,5.465 -5.938,5.495 -6.123,5.461 -6.383,5.411 -6.709,5.398 -6.91,5.319 -7.316,5.187 -7.779,5.032 -8.128,4.741 -8.502,4.485 -8.79,4.134 -9.05,3.786 -9.284,3.417 -9.485,3.041 -9.631,2.668 -9.921,1.923 -10.068,1.243 -10.154,0.764 -10.239,0.284 -10.264,0 -10.264,0 c 0,0 -0.076,0.274 -0.127,0.773 -0.047,0.496 -0.076,1.222 0.102,2.09 0.086,0.434 0.234,0.9 0.468,1.372 0.254,0.456 0.561,0.952 1.032,1.324 0.442,0.402 0.992,0.697 1.633,0.887 0.317,0.109 0.557,0.112 0.842,0.174 0.364,0.064 0.625,0.032 0.945,0.048 0.304,0.018 0.612,-0.046 0.917,-0.097 C -4.143,6.538 -3.848,6.44 -3.557,6.331 -3.258,6.248 -2.991,6.092 -2.732,5.933 -2.461,5.794 -2.242,5.59 -2.017,5.405 -1.141,4.627 -0.654,3.657 -0.382,2.832 -0.103,1.999 -0.024,1.28 0.005,0.782 0.03,0.283 0,0 0,0"
             style="fill:#352836;fill-opacity:1;fill-rule:nonzero;stroke:none"
             id="path92" /></g><g
           id="g94"
           transform="translate(95.7333,116.7589)"><path
             d="M 0,0 C 0,0 -0.07,0.276 -0.227,0.738 -0.384,1.2 -0.628,1.85 -1.009,2.562 -1.395,3.268 -1.934,4.036 -2.686,4.596 -3.056,4.879 -3.481,5.104 -3.942,5.244 -4.169,5.324 -4.401,5.399 -4.652,5.415 -4.897,5.448 -5.14,5.5 -5.397,5.474 -5.635,5.465 -5.938,5.495 -6.123,5.461 -6.383,5.411 -6.709,5.398 -6.91,5.319 -7.316,5.187 -7.779,5.032 -8.128,4.741 -8.502,4.485 -8.79,4.134 -9.05,3.786 -9.284,3.417 -9.485,3.041 -9.631,2.668 -9.921,1.923 -10.068,1.243 -10.154,0.764 -10.239,0.284 -10.264,0 -10.264,0 c 0,0 -0.076,0.274 -0.127,0.773 -0.047,0.496 -0.076,1.222 0.102,2.09 0.086,0.434 0.235,0.9 0.468,1.372 0.254,0.456 0.561,0.952 1.032,1.324 0.442,0.402 0.992,0.697 1.633,0.887 0.317,0.109 0.557,0.112 0.842,0.174 0.364,0.064 0.626,0.032 0.945,0.048 0.304,0.018 0.612,-0.046 0.918,-0.097 C -4.143,6.538 -3.848,6.44 -3.557,6.331 -3.258,6.248 -2.991,6.092 -2.732,5.933 -2.461,5.794 -2.242,5.59 -2.017,5.405 -1.141,4.627 -0.654,3.657 -0.382,2.832 -0.103,1.999 -0.024,1.28 0.005,0.782 0.03,0.283 0,0 0,0"
             style="fill:#352836;fill-opacity:1;fill-rule:nonzero;stroke:none"
             id="path96" /></g><g
           id="g98"
           transform="translate(108.3666,156.2822)"><path
             d="M 0,0 C -1.743,6.972 -5.902,8.735 -7.896,9.181 -9.045,27.142 -57.042,30.434 -57.667,27 c -0.666,-3.667 17,-9.667 17,-9.667 0,0 -31.666,8.334 -30,1 1.354,-5.957 14.145,-5.315 18.899,-4.864 C -58.452,12.635 -81.299,8.966 -71,-1.333 c 0.842,-0.843 1.758,-1.561 2.722,-2.188 -0.959,-12.769 2.829,-42.812 2.829,-42.812 h 2.665 l -1,20.666 c 5.167,1.034 7.53,13.276 8.332,18.733 8.748,-0.124 17.538,2.846 20.792,4.076 -1.961,-0.913 -5.055,-3.002 -1.673,-6.142 3.452,-3.205 15.834,0.7 22.047,2.951 1.143,-4.869 4.817,-18.524 10.287,-19.618 l -1,-20.666 h 2.666 c 0,0 4.666,37 2.333,46.333"
             style="fill:#ffdfc0;fill-opacity:1;fill-rule:nonzero;stroke:none"
             id="path100" /></g><g
           id="g102"
           transform="translate(108.3666,156.2822)"><path
             d="m 0,0 c -1.743,6.972 -5.902,8.735 -7.896,9.181 -0.21,3.283 -1.99,6.074 -4.755,8.425 -1.494,-12.18 -10.407,-22.536 -21.721,-27.549 4.87,-1.183 14.748,1.96 20.086,3.894 1.143,-4.869 4.817,-18.524 10.287,-19.618 l -1,-20.666 h 2.666 c 0,0 4.666,37 2.333,46.333"
             style="fill:#ddbaa3;fill-opacity:1;fill-rule:nonzero;stroke:none"
             id="path104" /></g></g></g></g></svg>
