<?xml version="1.0" encoding="UTF-8" standalone="no"?>
<svg
   xmlns:dc="http://purl.org/dc/elements/1.1/"
   xmlns:cc="http://creativecommons.org/ns#"
   xmlns:rdf="http://www.w3.org/1999/02/22-rdf-syntax-ns#"
   xmlns:svg="http://www.w3.org/2000/svg"
   xmlns="http://www.w3.org/2000/svg"
   xmlns:sodipodi="http://sodipodi.sourceforge.net/DTD/sodipodi-0.dtd"
   xmlns:inkscape="http://www.inkscape.org/namespaces/inkscape"
   version="1.1"
   id="svg2"
   xml:space="preserve"
   width="154.7381mm"
   height="116.34142mm"
   viewBox="0 0 584.83684 439.71599"
   sodipodi:docname="main.svg"
   inkscape:version="1.0.1 (3bc2e813f5, 2020-09-07)"><metadata
     id="metadata213"><rdf:RDF><cc:Work
         rdf:about=""><dc:format>image/svg+xml</dc:format><dc:type
           rdf:resource="http://purl.org/dc/dcmitype/StillImage" /><dc:title></dc:title></cc:Work></rdf:RDF></metadata><defs
     id="defs6"><clipPath
       clipPathUnits="userSpaceOnUse"
       id="clipPath18"><path
         d="M 0,500 H 500 V 0 H 0 Z"
         id="path16" /></clipPath><clipPath
       clipPathUnits="userSpaceOnUse"
       id="clipPath26"><path
         d="M 32.2987,428.146 H 470.927 V 113.255 H 32.2987 Z"
         id="path24" /></clipPath><clipPath
       clipPathUnits="userSpaceOnUse"
       id="clipPath42"><path
         d="M 33.1525,425.777 H 470.501 V 104.979 H 33.1525 Z"
         id="path40" /></clipPath><clipPath
       clipPathUnits="userSpaceOnUse"
       id="clipPath58"><path
         d="M 145.532,301.848 H 400.133 V 105.807 H 145.532 Z"
         id="path56" /></clipPath><clipPath
       clipPathUnits="userSpaceOnUse"
       id="clipPath74"><path
         d="M 0,500 H 500 V 0 H 0 Z"
         id="path72" /></clipPath><clipPath
       clipPathUnits="userSpaceOnUse"
       id="clipPath134"><path
         d="m 229.606,298.057 h 22.271 v -26.08 h -22.271 z"
         id="path132" /></clipPath><clipPath
       clipPathUnits="userSpaceOnUse"
       id="clipPath174"><path
         d="m 258.649,313.466 h 8.56 v -18.244 h -8.56 z"
         id="path172" /></clipPath><clipPath
       clipPathUnits="userSpaceOnUse"
       id="clipPath310"><path
         d="M 76.4289,128.772 H 459.616 v -5.586 H 76.4289 Z"
         id="path308" /></clipPath><clipPath
       clipPathUnits="userSpaceOnUse"
       id="clipPath398"><path
         d="M 0,500 H 500 V 0 H 0 Z"
         id="path396" /></clipPath></defs><sodipodi:namedview
     id="namedview4"
     pagecolor="#ffffff"
     bordercolor="#666666"
     borderopacity="1.0"
     inkscape:pageshadow="2"
     inkscape:pageopacity="0.0"
     inkscape:pagecheckerboard="0"
     inkscape:document-rotation="0"
     showgrid="false"
     inkscape:zoom="1.512"
     inkscape:cx="447.9098"
     inkscape:cy="116.61955"
     inkscape:window-width="2560"
     inkscape:window-height="1387"
     inkscape:window-x="-8"
     inkscape:window-y="472"
     inkscape:window-maximized="1"
     inkscape:current-layer="g8"
     showguides="true"
     inkscape:guide-bbox="true"
     inkscape:lockguides="false"
     units="mm"
     width="209mm"
     fit-margin-top="0"
     lock-margins="true"
     fit-margin-left="0"
     fit-margin-right="0"
     fit-margin-bottom="0"><sodipodi:guide
       position="-330.76376,593.07653"
       orientation="1,0"
       id="guide260"
       inkscape:locked="false" /></sodipodi:namedview><g
     id="g8"
     inkscape:groupmode="layer"
     inkscape:label="main"
     transform="matrix(1.3333333,0,0,-1.3333333,-17.932969,540.42226)"><g
       id="g12"
       transform="translate(-18.849215,-22.829296)"><g
         id="g14"
         clip-path="url(#clipPath18)"><g
           id="g20"><g
             id="g22" /><g
             id="g34"><g
               clip-path="url(#clipPath26)"
               opacity="0.199997"
               id="g32"><g
                 transform="translate(107.4634,115.7379)"
                 id="g30"><path
                   d="m 0,0 c 0,0 -54.621,38.897 -70.345,105.104 -15.724,66.206 8.276,146.482 53.793,187.034 45.517,40.552 127.448,13.241 163.862,-20.69 l 36.414,-33.931 c 0,0 34.759,-19.034 80.276,-17.379 45.517,1.655 86.069,-60.414 96.828,-109.241 10.758,-48.828 -14.897,-113.38 -14.897,-113.38 z"
                   style="fill:#6fd282;fill-opacity:1;fill-rule:nonzero;stroke:none"
                   id="path28" /></g></g></g></g><g
           id="g36"><g
             id="g38" /><g
             id="g50"><g
               clip-path="url(#clipPath42)"
               opacity="0.399994"
               id="g48"><g
                 transform="translate(82.6358,105.8069)"
                 id="g46"><path
                   d="m 0,0 c 0,0 -38.069,20.69 -48,68.69 -9.931,48 33.103,91.862 37.241,115.862 4.138,24 -4.965,53.793 33.104,76.965 38.069,23.173 105.931,14.897 131.586,20.69 25.655,5.793 55.448,45.517 106.759,36.414 51.31,-9.104 100.965,-36.414 103.448,-96 2.483,-59.586 -16.552,-61.242 2.483,-93.518 C 385.655,96.828 393.103,74.483 384,41.379 374.897,8.276 355.862,-0.828 355.862,-0.828 Z"
                   style="fill:#00b39b;fill-opacity:1;fill-rule:nonzero;stroke:none"
                   id="path44" /></g></g></g></g><g
           id="g52"><g
             id="g54" /><g
             id="g66"><g
               clip-path="url(#clipPath58)"
               opacity="0.600006"
               id="g64"><g
                 transform="translate(162.1245,116.5655)"
                 id="g62"><path
                   d="m 0,0 c -2.368,2.483 -37.1,72 1.579,135.724 38.679,63.724 135.772,56.276 174.451,31.448 38.679,-24.827 57.624,-57.103 61.571,-91.034 3.947,-33.931 -22.103,-86.897 -22.103,-86.897 z"
                   style="fill:#009d88;fill-opacity:1;fill-rule:nonzero;stroke:none"
                   id="path60" /></g></g></g></g></g></g><g
       id="g68"
       transform="translate(-18.849215,-22.829296)"><g
         id="g70"
         clip-path="url(#clipPath74)"><g
           id="g76"
           transform="translate(434.4634,233.6)"><path
             d="m 0,0 h -44.621 c -2.761,0 -5,2.239 -5,5 v 22.276 c 0,2.761 2.239,5 5,5 H 0 c 2.761,0 5,-2.239 5,-5 V 5 C 5,2.239 2.761,0 0,0"
             style="fill:#00b39b;fill-opacity:1;fill-rule:nonzero;stroke:none"
             id="path78" /></g><g
           id="g80"
           transform="translate(412.153,220.9793)"><path
             d="M 0,0 7.071,16.759 H -7.071 Z"
             style="fill:#00b39b;fill-opacity:1;fill-rule:nonzero;stroke:none"
             id="path82" /></g><g
           id="g84"
           transform="translate(411.9841,255.2799)"><path
             d="m 0,0 h 12.773 v -1.869 l 6.262,3.611 -6.262,3.61 V 3.483 H 0 Z"
             style="fill:#007e68;fill-opacity:1;fill-rule:nonzero;stroke:none"
             id="path86" /></g><g
           id="g88"
           transform="translate(431.0189,247.9357)"><path
             d="m 0,0 h -12.773 v 1.869 l -6.262,-3.611 6.262,-3.61 v 1.869 H 0 Z"
             style="fill:#ffffff;fill-opacity:1;fill-rule:nonzero;stroke:none"
             id="path90" /></g><g
           id="g92"
           transform="translate(404.1443,244.6498)"><path
             d="m 0,0 -0.608,-0.221 c 0,0 -1.896,2.163 -2.879,4.52 -0.984,2.357 -1.018,5.235 -1.018,5.235 l 0.444,0.185 -2.701,6.464 c -0.481,-0.376 -0.94,-0.86 -1.311,-1.487 -1.529,-2.583 -1.377,-6.547 0.16,-10.419 1.538,-3.872 3.182,-7.327 6.181,-9.499 1.771,-1.282 3.287,-1.506 4.465,-1.32 z"
             style="fill:#007e68;fill-opacity:1;fill-rule:nonzero;stroke:none"
             id="path94" /></g><g
           id="g96"
           transform="translate(406.0835,245.4112)"><path
             d="m 0,0 -0.84,-0.305 2.765,-6.618 c 0.312,0.102 0.592,0.228 0.836,0.361 0.714,0.391 1.027,1.25 0.727,2.006 L 2.043,-0.918 C 1.723,-0.109 0.817,0.297 0,0"
             style="fill:#007e68;fill-opacity:1;fill-rule:nonzero;stroke:none"
             id="path98" /></g><g
           id="g100"
           transform="translate(399.4938,261.9667)"><path
             d="m 0,0 c -0.34,-0.122 -0.71,-0.288 -1.082,-0.508 l 2.758,-6.602 0.929,0.388 c 0.805,0.336 1.194,1.254 0.878,2.067 l -1.45,3.722 C 1.718,-0.124 0.816,0.294 0,0"
             style="fill:#007e68;fill-opacity:1;fill-rule:nonzero;stroke:none"
             id="path102" /></g><g
           id="g104"
           transform="translate(149.2221,127.7379)"><path
             d="m 0,0 v 74.483 c 0,0 -0.828,20.069 9.724,25.862 10.552,5.793 55.035,2.69 55.035,2.69 V 0 Z"
             style="fill:#55a1ad;fill-opacity:1;fill-rule:nonzero;stroke:none"
             id="path106" /></g><g
           id="g108"
           transform="translate(227.8772,300.4965)"><path
             d="m 0,0 c 0,0 -2.69,-22.552 -3.724,-24.414 l -1.035,-1.862 -5.172,-3.517 c 0,0 9.931,-14.069 22.138,-16.345 12.207,-2.276 11.172,4.966 11.172,4.966 L 21.517,-37.241 24,-15.724 C 24,-15.724 1.862,-5.586 0,0"
             style="fill:#ff9e8c;fill-opacity:1;fill-rule:nonzero;stroke:none"
             id="path110" /></g><g
           id="g112"
           transform="translate(211.5324,268.8414)"><path
             d="m 0,0 8.069,3.517 c 0,0 5.172,-8.483 17.172,-13.448 12,-4.966 12.207,-2.069 12.828,0 0.621,2.069 -0.207,4.345 -0.207,4.345 l 0.888,7.244 4.799,-1.6 16.658,-134.748 -42.828,-2.069 z"
             style="fill:#ffffff;fill-opacity:1;fill-rule:nonzero;stroke:none"
             id="path114" /></g><g
           id="g116"
           transform="translate(251.0496,270.3586)"><path
             d="m 0,0 c 0,0 2.896,-6.69 5.586,-22.414 2.69,-15.724 5.173,-42.207 5.793,-60.414 0.621,-18.207 1.035,-59.793 1.035,-59.793 h 54 c 0.62,0 4.345,20.483 4.345,20.483 0,0 -23.587,20.207 -24.828,23.517 C 45.103,-96.414 45.517,-55.517 42,-36.69 38.483,-17.862 33.931,-14.069 24.414,-9.379 14.578,-4.533 0,0 0,0"
             style="fill:#007e68;fill-opacity:1;fill-rule:nonzero;stroke:none"
             id="path118" /></g><g
           id="g120"
           transform="translate(279.1871,151.4448)"><path
             d="m 0,0 c -0.276,0 -0.5,0.224 -0.5,0.5 0,1.48 -0.263,22.496 -0.517,42.821 -0.255,20.328 -0.517,41.348 -0.517,42.834 0,0.277 0.223,0.5 0.5,0.5 0.276,0 0.5,-0.223 0.5,-0.5 0,-1.479 0.262,-22.496 0.516,-42.821 C 0.237,23.006 0.5,1.986 0.5,0.5 0.5,0.224 0.276,0 0,0"
             style="fill:#8094b9;fill-opacity:1;fill-rule:nonzero;stroke:none"
             id="path122" /></g><g
           id="g124"
           transform="translate(171.6013,156.4965)"><path
             d="m 0,0 -0.414,-28.759 h 62.897 c 0,0 2.689,24.414 1.655,26.69 C 63.104,0.207 0,0 0,0"
             style="fill:#007e68;fill-opacity:1;fill-rule:nonzero;stroke:none"
             id="path126" /></g><g
           id="g128"><g
             id="g130" /><g
             id="g142"><g
               clip-path="url(#clipPath134)"
               id="g140"><g
                 transform="translate(241.6013,276.7034)"
                 id="g138"><path
                   d="m 0,0 c 2.563,-2.066 6.069,-3.724 8.799,-4.727 l 1.477,12.796 c 0,0 -16.629,7.617 -22.271,13.285 C -10.816,14.914 -7.916,6.382 0,0"
                   style="fill:#8a9cbe;fill-opacity:1;fill-rule:nonzero;stroke:none"
                   id="path136" /></g></g></g></g><g
           id="g144"
           transform="translate(271.3255,342.4965)"><path
             d="m 0,0 c 0,0 4.345,-7.448 5.172,-16.552 0.828,-9.103 0,-32.482 -7.448,-42.413 -7.448,-9.931 -22.965,-7.035 -30,-1.035 -6.456,5.507 -12.828,11.586 -14.483,23.586 -1.655,12 3.518,34.759 18.207,39.518 C -13.862,7.862 0,0 0,0"
             style="fill:#ff9e8c;fill-opacity:1;fill-rule:nonzero;stroke:none"
             id="path146" /></g><g
           id="g148"
           transform="translate(289.9899,140.7448)"><path
             d="M 0,0 C 0,0 -0.73,0 -1.84,0.03 -2.1,0.04 -2.39,0.03 -2.69,0.04 -3.76,0.07 -5.06,0.1 -6.37,0.14 -6.66,0.15 -6.96,0.16 -7.25,0.17 -8.55,0.2 -9.66,0.04 -10.7,0.1 h -0.03 c -0.22,0.01 -0.54,-0.02 -0.8,-0.03 -0.13,-0.01 -0.25,-0.02 -0.33,-0.01 -0.6,0.11 -0.72,0.25 -1.37,0.54 -0.84,0.38 -12.21,2.92 -21.46,2.86 -9.24,-0.04 -17.53,-0.67 -18.88,0.46 -1.36,1.15 -2.18,12.76 5.71,13.52 l 9.7,-3.68 c 0,0 22.15,2.63 30.27,-3.36 C 0.25,4.41 0,0 0,0"
             style="fill:#ff9e8c;fill-opacity:1;fill-rule:nonzero;stroke:none"
             id="path150" /></g><g
           id="g152"
           transform="translate(279.26,140.8448)"><path
             d="m 0,0 c -0.22,0.01 -0.54,-0.02 -0.8,-0.03 -0.2,0.32 -0.62,0.9 -0.85,1.14 -2.5,2.55 -8.54,4.2 -10.73,4.73 -0.2,0.05 -0.33,0.25 -0.28,0.45 0.04,0.2 0.25,0.32 0.46,0.28 C -9.01,5.8 -2.24,3.83 -0.32,0.6 -0.26,0.51 -0.1,0.2 0,0"
             style="fill:#04377d;fill-opacity:1;fill-rule:nonzero;stroke:none"
             id="path154" /></g><g
           id="g156"
           transform="translate(283.6222,140.8856)"><path
             d="m 0,0 c -0.29,0.007 -0.59,0.014 -0.879,0.031 -2.73,4.978 -7.196,6.408 -12.715,8.183 l -0.327,0.108 c -0.189,0.064 -0.304,0.277 -0.239,0.476 0.065,0.188 0.268,0.303 0.476,0.238 l 0.318,-0.108 C -7.53,7.056 -2.836,5.551 0,0"
             style="fill:#04377d;fill-opacity:1;fill-rule:nonzero;stroke:none"
             id="path158" /></g><g
           id="g160"
           transform="translate(288.1509,140.7752)"><path
             d="m 0,0 c -0.26,0.006 -0.55,0.003 -0.85,0.011 -1.656,3.481 -7.135,9.306 -14.384,10.663 -0.21,0.035 -0.345,0.229 -0.31,0.438 0.045,0.199 0.238,0.334 0.438,0.299 C -7.638,10.009 -1.615,3.91 0,0"
             style="fill:#04377d;fill-opacity:1;fill-rule:nonzero;stroke:none"
             id="path162" /></g><g
           id="g164"
           transform="translate(229.5324,316.3241)"><path
             d="m 0,0 c 0,0 4.552,2.172 7.759,8.276 3.206,6.103 2.793,11.586 2.793,11.586 0,0 5.793,0.931 14.482,-1.655 8.69,-2.586 19.035,-6.103 27.725,-1.138 8.689,4.966 8.689,12.931 4.448,16.241 -4.75,3.708 -14.173,1.449 -14.173,1.449 0,0 3.621,3.517 1.656,5.586 -1.966,2.069 -9.104,-0.621 -9.104,-0.621 0,0 -8.69,6.931 -25.138,6.104 C -6,45 -13.862,33.517 -14.793,20.69 -15.724,7.862 -11.069,-4.965 -11.069,-4.965 Z"
             style="fill:#ffdfc0;fill-opacity:1;fill-rule:nonzero;stroke:none"
             id="path166" /></g><g
           id="g168"><g
             id="g170" /><g
             id="g182"><g
               clip-path="url(#clipPath174)"
               id="g180"><g
                 transform="translate(262.9024,313.2148)"
                 id="g178"><path
                   d="m 0,0 c -0.932,-2.298 -0.909,-4.966 -1.144,-7.405 -0.183,-1.897 -0.531,-4.109 1.207,-5.39 0.83,-0.612 4.757,-2.262 2.738,-3.599 -0.77,-0.51 -2.061,-0.37 -2.938,-0.33 -0.603,0.028 -1.213,0.054 -1.816,0.099 -0.649,0.048 -1.285,0.244 -1.934,0.247 -0.381,0.002 -0.499,-0.505 -0.19,-0.699 1.045,-0.653 2.576,-0.855 3.794,-0.902 1.218,-0.048 2.044,0.009 3.141,0.553 0.675,0.334 1.328,0.808 1.435,1.609 0.12,0.902 -0.556,1.711 -1.236,2.215 -0.782,0.58 -1.742,0.85 -2.532,1.416 -1.095,0.784 -1.005,2.105 -0.928,3.328 0.185,2.941 0.861,5.832 1.124,8.76 C 0.761,0.35 0.142,0.35 0,0"
                   style="fill:#8a9cbe;fill-opacity:1;fill-rule:nonzero;stroke:none"
                   id="path176" /></g></g></g></g><g
           id="g184"
           transform="translate(271.3591,306.3353)"><path
             d="m 0,0 c -0.309,-1.744 -1.577,-2.978 -2.834,-2.755 -1.256,0.222 -2.025,1.816 -1.716,3.56 0.309,1.744 1.577,2.978 2.834,2.755 C -0.46,3.338 0.309,1.744 0,0"
             style="fill:#000000;fill-opacity:1;fill-rule:nonzero;stroke:none"
             id="path186" /></g><g
           id="g188"
           transform="translate(255.5279,307.7168)"><path
             d="m 0,0 c -0.28,-1.882 -1.606,-3.243 -2.961,-3.042 -1.356,0.202 -2.228,1.891 -1.948,3.772 0.28,1.882 1.606,3.244 2.962,3.042 C -0.592,3.57 0.28,1.882 0,0"
             style="fill:#000000;fill-opacity:1;fill-rule:nonzero;stroke:none"
             id="path190" /></g><g
           id="g192"
           transform="translate(267.6738,313.5243)"><path
             d="m 0,0 c 0.967,-0.163 1.943,0.003 2.918,-0.065 0.234,-0.017 0.466,-0.051 0.699,-0.074 0.166,-0.016 -0.31,0.049 -0.078,0.011 0.05,-0.008 0.099,-0.016 0.149,-0.024 0.122,-0.022 0.244,-0.047 0.365,-0.077 0.207,-0.05 0.408,-0.128 0.616,-0.174 0.189,-0.041 0.399,-0.085 0.589,-0.076 0.107,0.014 0.213,0.028 0.319,0.042 -0.067,-0.012 -0.134,-0.024 -0.201,-0.036 0,-0.023 0.363,0.035 0.396,0.043 0.554,0.129 0.897,0.772 0.743,1.307 C 6.47,1.032 6.401,1.172 6.303,1.299 6.262,1.353 6.22,1.407 6.177,1.46 6.216,1.415 6.255,1.37 6.294,1.326 6.253,1.384 6.21,1.44 6.165,1.496 6.11,1.588 6.037,1.662 5.944,1.717 5.867,1.776 5.79,1.839 5.71,1.894 5.454,2.073 5.117,2.177 4.813,2.255 4.236,2.403 3.631,2.479 3.035,2.483 2.444,2.486 1.86,2.424 1.275,2.343 0.759,2.271 0.185,2.096 -0.233,1.785 -0.557,1.544 -0.756,1.234 -0.699,0.812 -0.652,0.462 -0.376,0.063 0,0"
             style="fill:#000000;fill-opacity:1;fill-rule:nonzero;stroke:none"
             id="path194" /></g><g
           id="g196"
           transform="translate(256.638,316.2918)"><path
             d="M 0,0 C -0.131,0.078 -0.265,0.146 -0.404,0.209 -0.522,0.263 -0.842,0.431 -0.6,0.298 -0.688,0.346 -0.776,0.395 -0.865,0.44 -1.266,0.642 -1.682,0.777 -2.115,0.888 -3.06,1.128 -4.053,1.189 -5.021,1.087 -6.054,0.978 -6.997,0.728 -7.892,0.189 -8.018,0.113 -8.148,0.038 -8.253,-0.067 c -0.071,-0.09 -0.141,-0.181 -0.209,-0.272 0.019,0.03 0.039,0.06 0.059,0.09 -0.276,-0.193 -0.437,-0.51 -0.434,-0.843 0.002,-0.322 0.169,-0.59 0.447,-0.745 0.338,-0.188 0.658,-0.098 1.005,-0.008 h -0.523 c 0.287,-0.045 0.489,-0.057 0.779,0.007 0.011,0.003 0.279,0.069 0.102,0.032 -0.166,-0.035 0.282,0.034 0.331,0.041 0.057,0.008 0.368,0.039 0.039,0.007 0.061,0.006 0.121,0.014 0.181,0.022 0.157,0.019 0.312,0.038 0.469,0.051 0.683,0.054 1.364,0.085 2.048,0.107 0.635,0.021 1.282,0.026 1.916,-10e-4 0.272,-0.012 0.543,-0.021 0.815,-0.029 0.154,-0.004 0.088,-0.028 -0.016,0.005 0.055,-0.017 0.114,-0.028 0.17,-0.044 0.113,-0.031 0.224,-0.068 0.334,-0.109 0.441,-0.169 0.97,0.15 1.133,0.556 C 0.571,-0.758 0.42,-0.25 0,0"
             style="fill:#000000;fill-opacity:1;fill-rule:nonzero;stroke:none"
             id="path198" /></g><g
           id="g200"
           transform="translate(261.5502,287.5312)"><path
             d="M 0,0 C 0.949,1.909 2.677,3.308 4.674,4.208 2.94,4.384 -5.244,5.142 -7.309,3.969 c -2.314,-1.313 0.427,-6.588 5.212,-6.853 0.503,-0.028 0.959,0.013 1.395,0.081 C -0.663,-1.84 -0.441,-0.887 0,0"
             style="fill:#000000;fill-opacity:1;fill-rule:nonzero;stroke:none"
             id="path202" /></g><g
           id="g204"
           transform="translate(223.7392,298.6345)"><path
             d="m 0,0 c 0,0 0.828,-3.207 5.586,-6.931 4.759,-3.724 11.655,-6.448 11.655,-6.448 l 0.552,2.413 c 0,0 -7.138,3.104 -10.448,6.518 -3.31,3.414 -3.724,5.276 -3.724,5.276 z"
             style="fill:#dee2ec;fill-opacity:1;fill-rule:nonzero;stroke:none"
             id="path206" /></g><g
           id="g208"
           transform="translate(242.3601,289.4545)"><path
             d="M 0,0 C 3.829,0.178 5.967,-2.85 6.234,-4.809 6.501,-6.768 4.661,-8.965 0.356,-7.035 -4.991,-4.638 -3.829,-0.178 0,0"
             style="fill:#000000;fill-opacity:1;fill-rule:nonzero;stroke:none"
             id="path210" /></g><g
           id="g212"
           transform="translate(226.7392,322.3241)"><path
             d="m 0,0 c 0,0 1.654,11.89 9.621,19.966 15.207,15.413 28.138,14.482 28.138,14.482 0,0 -0.104,2.173 -4.966,3.828 C 28.228,39.83 26.173,39 26.173,39 26.173,39 13.655,37.966 3.104,26.276 -7.448,14.586 -8.586,-0.31 -8.586,-0.31 Z"
             style="fill:#dee2ec;fill-opacity:1;fill-rule:nonzero;stroke:none"
             id="path214" /></g><g
           id="g216"
           transform="translate(225.6013,323.7724)"><path
             d="M 0,0 C -9.962,1.689 -15.517,-6.103 -15.931,-13.966 -16.345,-21.828 -10.632,-27.805 -3,-27.207 14.172,-25.862 12.207,-2.069 0,0"
             style="fill:#ffffff;fill-opacity:1;fill-rule:nonzero;stroke:none"
             id="path218" /></g><g
           id="g220"
           transform="translate(220.6407,304.206)"><path
             d="m 0,0 c -2.629,0 -4.852,1.321 -6.123,3.649 -1.361,2.493 -1.247,5.562 0.291,7.818 0.117,0.17 0.35,0.215 0.522,0.099 0.17,-0.117 0.215,-0.35 0.098,-0.522 -1.381,-2.025 -1.48,-4.787 -0.252,-7.036 1.164,-2.133 3.22,-3.342 5.655,-3.255 2.276,0.061 4.205,1.102 5.432,2.932 1.4,2.088 1.722,4.973 0.82,7.347 -0.895,2.356 -3.348,3.962 -5.58,3.67 -0.201,-0.027 -0.394,0.117 -0.421,0.323 -0.027,0.204 0.117,0.393 0.322,0.42 2.61,0.349 5.351,-1.435 6.381,-4.146 C 8.13,8.704 7.777,5.551 6.246,3.268 4.88,1.23 2.737,0.071 0.211,0.003 0.141,0.001 0.07,0.001 0,0"
             style="fill:#7c90b6;fill-opacity:1;fill-rule:nonzero;stroke:none"
             id="path222" /></g><g
           id="g224"
           transform="translate(213.3944,271.7379)"><path
             d="m 0,0 c 0,0 -30.207,-7.448 -40.759,-19.448 -10.551,-12 -15.517,-71.173 -15.724,-82.138 -0.207,-10.966 7.448,-15.517 12,-18.621 4.552,-3.103 24.621,-8.69 40.759,-9.517 16.138,-0.828 31.448,0 31.448,0 0,0 -0.052,3.517 2.431,8.689 2.303,4.798 5.224,5.794 5.224,5.794 l -13.862,4.965 c 0,0 -2.427,43.494 -6.207,64.552 C 10.965,-21.517 0,0 0,0"
             style="fill:#007e68;fill-opacity:1;fill-rule:nonzero;stroke:none"
             id="path226" /></g><g
           id="g228"
           transform="translate(193.3258,175.2378)"><path
             d="m 0,0 c -0.023,0 -0.047,0.002 -0.07,0.005 -0.274,0.039 -0.464,0.292 -0.426,0.565 0.368,2.601 6.107,54.401 6.37,58.369 0.019,0.276 0.257,0.492 0.533,0.465 C 6.682,59.386 6.891,59.147 6.872,58.872 6.608,54.898 0.862,3.034 0.495,0.43 0.459,0.181 0.245,0 0,0"
             style="fill:#8094b9;fill-opacity:1;fill-rule:nonzero;stroke:none"
             id="path230" /></g><g
           id="g232"
           transform="translate(234.4976,161.1694)"><path
             d="m 0,0 c -0.062,0 -0.126,0.012 -0.188,0.036 -1.271,0.516 -6.891,2.411 -14.004,4.81 -14.359,4.842 -34.023,11.473 -37.763,13.417 -0.245,0.127 -0.34,0.428 -0.213,0.673 0.127,0.247 0.428,0.344 0.674,0.213 3.671,-1.907 24.102,-8.796 37.621,-13.355 C -6.743,3.389 -1.111,1.49 0.188,0.964 0.444,0.859 0.567,0.568 0.463,0.312 0.385,0.118 0.197,0 0,0"
             style="fill:#8094b9;fill-opacity:1;fill-rule:nonzero;stroke:none"
             id="path234" /></g><g
           id="g236"
           transform="translate(227.5933,140.5434)"><path
             d="m 0,0 c -12.637,0 -37.135,2.278 -55.745,8.86 -0.26,0.093 -0.397,0.378 -0.304,0.639 0.091,0.26 0.38,0.397 0.637,0.305 C -31.902,1.487 0.986,0.067 7.105,1.441 7.375,1.499 7.642,1.331 7.703,1.062 7.763,0.793 7.594,0.525 7.324,0.465 6,0.168 3.439,0 0,0"
             style="fill:#8094b9;fill-opacity:1;fill-rule:nonzero;stroke:none"
             id="path238" /></g><g
           id="g240"
           transform="translate(82.9595,264.7613)"><path
             d="m 0,0 c 3.923,-3.451 8.892,-5.663 12.334,-9.652 1.355,-1.57 2.571,-3.241 3.829,-4.887 0.915,-1.198 3.358,-3.185 3.755,-4.691 0.174,-0.663 0.137,0.235 -0.038,0.9 -0.007,0.028 -0.022,0.055 -0.03,0.083 -0.343,3.049 -0.59,6.11 -0.696,9.177 -0.107,3.058 0.083,6.13 -0.108,9.184 -0.271,4.309 -1.616,8.481 -5.137,11.18 -1.722,1.32 -3.934,2.123 -5.517,3.587 -1.502,1.39 -0.899,2.982 -0.016,4.532 0.826,1.45 1.828,2.876 2.15,4.546 0.366,1.898 -0.347,3.856 -1.31,5.472 -2.049,3.439 -6.593,7.275 -10.896,6.76 -3.588,-0.429 -3.995,-4.568 -3.944,-7.453 0.05,-2.803 0.327,-5.599 0.354,-8.404 0.028,-2.883 -0.462,-5.71 -0.503,-8.58 C -5.843,6.874 -3.588,3.155 0,0"
             style="fill:#ffa1a1;fill-opacity:1;fill-rule:nonzero;stroke:none"
             id="path242" /></g><g
           id="g244"
           transform="translate(119.4088,219.9789)"><path
             d="M 0,0 C 1.092,2.605 2.345,5.041 3.886,7.409 6,10.66 8.344,13.827 9.764,17.466 c 1.45,3.716 1.237,7.691 1.38,11.604 0.105,2.876 0.959,5.743 0.729,8.626 -0.111,1.383 -0.908,3.62 -2.697,3.391 C 7.784,40.909 6.957,39.183 6.422,38.082 5.488,36.16 4.841,34.11 4.148,32.094 3.877,31.306 3.619,30.502 3.277,29.741 c -0.2,-0.443 -0.833,-1.523 -1.43,-1.375 -1.016,0.251 -0.094,4.401 0.057,5.136 0.76,3.692 1.903,7.123 2.061,10.922 0.23,5.508 -0.198,12.065 -5.585,15.077 -1.409,0.787 -3.193,1.256 -4.531,0.079 -1.32,-1.162 -1.693,-3.175 -1.889,-4.832 -0.601,-5.088 0.596,-9.905 2.226,-14.691 1.346,-3.952 2.95,-8.03 3.067,-12.256 0.113,-4.068 -2.004,-7.673 -2.997,-11.515 -1.583,-6.125 -1.255,-9.371 -1.263,-11.355 -0.01,-2.484 0.08,-4.942 0.262,-7.42 0.167,-2.277 0.364,-4.555 0.643,-6.821 0.056,-0.459 0.108,-0.938 0.169,-1.417 -0.875,2.107 -1.181,4.521 -1.905,6.638 -1.288,3.763 -2.783,7.449 -4.019,11.231 -1.022,3.124 -1.986,6.272 -3.334,9.275 -1.265,2.818 -2.792,5.798 -5.151,7.866 -1.426,1.251 -3.154,1.981 -5.061,1.967 -1.219,-0.01 -2.315,-0.432 -3.48,-0.74 -1.434,-0.378 -2.562,-0.248 -3.741,0.658 -3.861,2.968 -5.035,8.29 -7.894,12.047 -2.131,2.803 -7.19,7.581 -10.909,4.525 -1.973,-1.621 -2.517,-4.755 -2.414,-7.157 0.13,-3.013 1.447,-5.769 3.015,-8.288 1.668,-2.68 3.822,-5.079 5.355,-7.833 0.905,-1.628 1.047,-3.187 0.903,-5.023 -0.135,-1.729 -0.286,-3.403 0.304,-5.071 1.77,-5.01 7.296,-4.311 11.595,-4.442 3.008,-0.091 6.234,-0.539 9.09,-1.501 3.3,-1.111 5.447,-3.259 6.627,-6.523 0.854,-2.363 1.31,-5.045 2.918,-7.052 0.757,-0.944 1.757,-1.641 2.858,-2.128 1.677,-0.741 6.787,-1.063 6.825,-0.597 0.126,1.563 0.867,3.213 1.331,4.695 0.87,2.781 1.893,5.493 3.02,8.18"
             style="fill:#ffa1a1;fill-opacity:1;fill-rule:nonzero;stroke:none"
             id="path246" /></g><g
           id="g248"
           transform="translate(143.1396,220.9226)"><path
             d="M 0,0 C -0.444,2.864 -0.359,6.021 -1.715,8.651 -1.812,8.839 -2.069,8.886 -2.243,8.789 -3.215,8.25 -3.256,6.68 -3.335,5.718 -3.467,4.122 -3.369,2.522 -3.565,0.931 -3.91,-1.865 -4.556,-4.748 -5.563,-7.383 c -1.139,-2.981 -3.212,-4.672 -6.222,-5.603 -1.935,-0.598 -3.832,-1.118 -5.446,-2.401 -1.445,-1.149 -2.449,-2.735 -3.194,-4.405 -2.01,-4.506 -2.967,-9.544 -3.898,-14.359 -0.628,-3.242 -1.139,-6.499 -1.927,-9.708 -0.787,-3.207 -1.631,-6.399 -2.083,-9.676 -0.076,-0.165 -0.156,-0.328 -0.227,-0.495 -0.206,-0.49 0.561,-0.755 0.825,-0.348 3.107,4.783 6.892,9.076 12.056,11.71 2.332,1.19 5.43,1.436 7.375,3.306 1.48,1.422 1.684,3.591 1.463,5.525 -0.291,2.541 -1.509,4.633 -2.777,6.798 -0.697,1.189 -1.52,2.464 -1.239,3.909 0.266,1.364 1.399,2.366 2.525,3.065 2.146,1.333 4.656,1.933 6.414,3.854 1.633,1.785 2.538,4.005 2.719,6.408 C 1.042,-6.599 0.49,-3.163 0,0"
             style="fill:#ffa1a1;fill-opacity:1;fill-rule:nonzero;stroke:none"
             id="path250" /></g><g
           id="g252"
           transform="translate(100.7742,204.4097)"><path
             d="m 0,0 c -2.742,3.532 -6.051,6.578 -9.775,9.051 -1.986,1.319 -6.674,3.923 -7.619,0.03 -0.555,-2.281 1.678,-4.525 3.147,-5.955 2.208,-2.148 4.762,-4.003 6.625,-6.479 -2.307,-0.736 -4.717,-0.879 -6.721,-2.474 -2.373,-1.888 -3.438,-5.535 -1.085,-7.848 1.147,-1.127 2.667,-1.819 4.095,-2.51 1.856,-0.899 3.746,-1.713 5.649,-2.508 4.107,-1.716 8.267,-3.457 11.77,-6.267 3.57,-2.865 6.926,-7.708 7.21,-12.381 0.027,-0.446 -0.142,-0.039 0.124,0.164 0.146,-0.13 0.635,0.103 0.633,0.364 -0.073,6.935 -1.319,13.538 -4.153,19.89 C 7.273,-11.035 3.96,-5.101 0,0"
             style="fill:#ffa1a1;fill-opacity:1;fill-rule:nonzero;stroke:none"
             id="path254" /></g><g
           id="g256"
           transform="translate(91.3037,268.9634)"><path
             d="m 0,0 c 1.513,-3.139 3.095,-6.206 4.774,-9.267 1.616,-2.948 3.23,-5.872 4.439,-9.016 1.489,-3.872 3.05,-7.685 4.624,-11.522 1.636,-3.988 3.099,-8.051 4.272,-12.2 2.289,-8.099 3.99,-16.434 4.832,-24.811 0.427,-4.259 0.622,-8.544 0.504,-12.824 -0.091,-3.344 -0.468,-6.653 -0.783,-9.98 -0.327,-3.462 -0.562,-6.965 -0.273,-10.439 0.242,-2.904 0.704,-6.356 2.958,-8.428 0.441,-0.405 1.065,0.101 0.81,0.625 -2.678,5.492 -2.528,11.479 -2.016,17.435 0.282,3.287 0.675,6.558 0.785,9.858 0.141,4.199 -0.024,8.406 -0.419,12.588 -0.777,8.22 -2.416,16.343 -4.542,24.315 -1.091,4.088 -2.439,8.096 -3.994,12.031 -1.558,3.943 -3.357,7.779 -4.867,11.742 C 8.373,-12.726 4.211,-6.372 0.526,0.308 0.335,0.655 -0.168,0.349 0,0"
             style="fill:#365691;fill-opacity:1;fill-rule:nonzero;stroke:none"
             id="path258" /></g><g
           id="g260"
           transform="translate(114.3671,210.3586)"><path
             d="m 0,0 c 0.433,5.22 0.896,10.245 2.655,15.224 0.821,2.322 1.815,4.58 2.607,6.911 0.654,1.927 1.633,4.57 1.129,6.617 -0.056,0.229 -0.389,0.217 -0.452,0 C 5.602,27.582 5.639,26.3 5.397,25.1 5.161,23.933 4.845,22.786 4.482,21.652 3.71,19.24 2.701,16.928 1.827,14.555 0.139,9.968 -0.728,4.888 -0.359,0 -0.342,-0.231 -0.019,-0.231 0,0"
             style="fill:#365691;fill-opacity:1;fill-rule:nonzero;stroke:none"
             id="path262" /></g><g
           id="g264"
           transform="translate(84.1232,240.3528)"><path
             d="m 0,0 c 2.072,-5.005 8.299,-5.293 12.835,-6.414 3.239,-0.801 5.63,-2.962 7.348,-5.767 1.879,-3.069 3.151,-6.672 4.196,-10.097 0.012,-0.039 0.068,-0.023 0.06,0.016 -1.268,5.999 -3.086,13.222 -9.27,16.013 C 10.214,-4.012 3.684,-5.135 0.514,0.217 0.358,0.48 -0.126,0.303 0,0"
             style="fill:#365691;fill-opacity:1;fill-rule:nonzero;stroke:none"
             id="path266" /></g><g
           id="g268"
           transform="translate(111.0923,211.1507)"><path
             d="m 0,0 c 0.246,-0.333 0.472,-0.68 0.727,-1.007 0.125,-0.161 0.254,-0.314 0.412,-0.444 0.163,-0.133 0.354,-0.298 0.577,-0.294 0.093,0.002 0.158,0.106 0.108,0.188 -0.103,0.168 -0.288,0.268 -0.432,0.395 -0.148,0.131 -0.3,0.26 -0.444,0.396 C 0.659,-0.492 0.394,-0.195 0.11,0.085 0.056,0.139 -0.049,0.066 0,0"
             style="fill:#365691;fill-opacity:1;fill-rule:nonzero;stroke:none"
             id="path270" /></g><g
           id="g272"
           transform="translate(98.1376,195.2742)"><path
             d="m 0,0 c 3.573,-2.934 6.87,-6.404 9.489,-10.207 1.253,-1.818 2.408,-3.742 3.457,-5.685 1.145,-2.121 1.896,-4.363 2.793,-6.589 0.068,-0.169 0.376,-0.172 0.353,0.048 -0.497,4.706 -3.478,8.741 -5.865,12.657 -1.24,2.035 -2.782,3.674 -4.441,5.371 C 4.074,-2.653 2.33,-0.996 0.322,0.417 0.078,0.589 -0.234,0.192 0,0"
             style="fill:#365691;fill-opacity:1;fill-rule:nonzero;stroke:none"
             id="path274" /></g><g
           id="g276"
           transform="translate(126.5933,200.8151)"><path
             d="m 0,0 c -1.721,-0.975 -1.777,-3.694 -1.811,-5.43 -0.065,-3.335 0.761,-6.467 -0.703,-9.646 -1.322,-2.87 -3.434,-5.267 -5.095,-7.933 -1.554,-2.495 -3.088,-5.685 -3.053,-8.689 0.002,-0.174 0.268,-0.271 0.349,-0.094 0.626,1.363 0.851,2.913 1.299,4.341 0.504,1.607 1.209,3.067 2.12,4.479 1.598,2.476 3.56,4.73 4.856,7.393 1.366,2.807 1.166,5.587 1.076,8.628 -0.057,1.939 -0.252,5.055 1.312,6.497 C 0.595,-0.228 0.282,0.16 0,0"
             style="fill:#365691;fill-opacity:1;fill-rule:nonzero;stroke:none"
             id="path278" /></g><g
           id="g280"
           transform="translate(115.0844,168.807)"><path
             d="m 0,0 c -6.933,0.096 -20.138,0.172 -20.138,0.172 l 3.267,-24.261 c 0.736,-5.459 5.394,-9.532 10.902,-9.532 h 5.694 0.55 5.694 c 5.508,0 10.166,4.073 10.902,9.532 L 20.138,0.172 C 20.138,0.172 6.933,0.096 0,0"
             style="fill:#ffffff;fill-opacity:1;fill-rule:nonzero;stroke:none"
             id="path282" /></g><g
           id="g284"
           transform="translate(450.1877,213.3931)"><path
             d="m 0,0 -39.552,-78.345 -115.31,-0.827 35.586,80.275 z"
             style="fill:#f6f7fa;fill-opacity:1;fill-rule:nonzero;stroke:none"
             id="path286" /></g><g
           id="g288"
           transform="translate(218.7958,134.7083)"><path
             d="m 0,0 0.022,6.271 h 74.646 l 34.344,75.31 h 119.38 l 3,-2.896 H 114.771 L 79.081,0.064 C 79.081,0.064 0,0.207 0,0"
             style="fill:#d9dfe9;fill-opacity:1;fill-rule:nonzero;stroke:none"
             id="path290" /></g><g
           id="g292"
           transform="translate(390.31,170.1607)"><path
             d="m 0,0 c -1.303,-3.908 -8.373,-6.925 -15.792,-6.74 -7.419,0.186 -12.377,3.504 -11.075,7.412 1.303,3.907 8.373,6.925 15.792,6.74 C -3.656,7.226 1.303,3.908 0,0"
             style="fill:#d9dfe9;fill-opacity:1;fill-rule:nonzero;stroke:none"
             id="path294" /></g><g
           id="g296"
           transform="translate(297.8775,134.272)"><path
             d="m 0,0 c -0.069,0 -0.14,0.015 -0.207,0.045 -0.251,0.114 -0.362,0.41 -0.248,0.662 l 35.822,78.914 h 116.944 c 0.276,0 0.5,-0.224 0.5,-0.5 0,-0.276 -0.224,-0.5 -0.5,-0.5 H 36.012 L 0.455,0.293 C 0.372,0.109 0.189,0 0,0"
             style="fill:#ffffff;fill-opacity:1;fill-rule:nonzero;stroke:none"
             id="path298" /></g><path
           d="M 213.601,98.359 H 76.429 v 30.413 h 137.172 z"
           style="fill:#006d5b;fill-opacity:1;fill-rule:nonzero;stroke:none"
           id="path300" /><path
           d="M 459.616,98.359 H 212.817 v 30.413 h 246.799 z"
           style="fill:#008f79;fill-opacity:1;fill-rule:nonzero;stroke:none"
           id="path302" /><g
           id="g304"><g
             id="g306" /><g
             id="g318"><g
               clip-path="url(#clipPath310)"
               id="g316"><g
                 transform="translate(213.601,128.772)"
                 id="g314"><path
                   d="M 0,0 H -0.784 -137.172 V -5.586 H -0.784 0 246.015 V 0 Z"
                   style="fill:#bcc5d9;fill-opacity:1;fill-rule:nonzero;stroke:none"
                   id="path312" /></g></g></g></g><path
           d="M 219.601,127.324 H 69.808 v 7.448 h 149.793 z"
           style="fill:#006b45;fill-opacity:1;fill-rule:nonzero;stroke:none"
           id="path320" /><path
           d="M 465.617,127.324 H 218.818 v 7.448 h 246.799 z"
           style="fill:#008d60;fill-opacity:1;fill-rule:nonzero;stroke:none"
           id="path322" /><g
           id="g324"
           transform="translate(178.9687,294.343)"><path
             d="m 0,0 h -48.424 c -2.996,0 -5.426,2.429 -5.426,5.426 v 24.175 c 0,2.996 2.43,5.426 5.426,5.426 H 0 c 2.997,0 5.426,-2.43 5.426,-5.426 V 5.426 C 5.426,2.429 2.997,0 0,0"
             style="fill:#ffffff;fill-opacity:1;fill-rule:nonzero;stroke:none"
             id="path326" /></g><g
           id="g328"
           transform="translate(198.1952,311.8563)"><path
             d="M 0,0 -18.187,7.674 V -7.674 Z"
             style="fill:#ffffff;fill-opacity:1;fill-rule:nonzero;stroke:none"
             id="path330" /></g><g
           id="g332"
           transform="translate(146.6191,311.8563)"><path
             d="m 0,0 c 0,-1.85 -1.5,-3.35 -3.35,-3.35 -1.85,0 -3.35,1.5 -3.35,3.35 0,1.85 1.5,3.35 3.35,3.35 C -1.5,3.35 0,1.85 0,0"
             style="fill:#77595e;fill-opacity:1;fill-rule:nonzero;stroke:none"
             id="path334" /></g><g
           id="g336"
           transform="translate(158.1069,311.8563)"><path
             d="m 0,0 c 0,-1.85 -1.5,-3.35 -3.35,-3.35 -1.85,0 -3.35,1.5 -3.35,3.35 0,1.85 1.5,3.35 3.35,3.35 C -1.5,3.35 0,1.85 0,0"
             style="fill:#77595e;fill-opacity:1;fill-rule:nonzero;stroke:none"
             id="path338" /></g><g
           id="g340"
           transform="translate(169.5948,311.8563)"><path
             d="m 0,0 c 0,-1.85 -1.5,-3.35 -3.35,-3.35 -1.85,0 -3.35,1.5 -3.35,3.35 0,1.85 1.5,3.35 3.35,3.35 C -1.5,3.35 0,1.85 0,0"
             style="fill:#77595e;fill-opacity:1;fill-rule:nonzero;stroke:none"
             id="path342" /></g><g
           id="g344"
           transform="translate(425.4979,403.7379)"><path
             d="m 0,0 h -111.793 c -7.18,0 -13,-5.82 -13,-13 v -53.035 c 0,-7.179 5.82,-13 13,-13 h 10.02 c 0.282,-4.807 -0.407,-11.959 -4.421,-21.103 12.915,5.958 20.353,14.904 24.237,21.103 H 0 c 7.18,0 13,5.821 13,13 V -13 C 13,-5.82 7.18,0 0,0"
             style="fill:#00b39b;fill-opacity:1;fill-rule:nonzero;stroke:none"
             id="path346" /></g><g
           id="g348"
           transform="translate(377.8082,378.462)"><path
             d="m 0,0 h -55.448 c -1.524,0 -2.759,1.235 -2.759,2.759 0,1.523 1.235,2.758 2.759,2.758 L 0,5.517 C 1.524,5.517 2.759,4.282 2.759,2.759 2.759,1.235 1.524,0 0,0"
             style="fill:#ffffff;fill-opacity:1;fill-rule:nonzero;stroke:none"
             id="path350" /></g><g
           id="g352"
           transform="translate(417.5668,362.3926)"><path
             d="m 0,0 h -96.276 c -0.933,0 -1.69,0.757 -1.69,1.69 0,0.933 0.757,1.689 1.69,1.689 H 0 C 0.933,3.379 1.69,2.623 1.69,1.69 1.69,0.757 0.933,0 0,0"
             style="fill:#cbe7ff;fill-opacity:1;fill-rule:nonzero;stroke:none"
             id="path354" /></g><g
           id="g356"
           transform="translate(417.5668,353.0135)"><path
             d="m 0,0 h -96.276 c -0.933,0 -1.69,0.756 -1.69,1.69 0,0.933 0.757,1.689 1.69,1.689 H 0 C 0.933,3.379 1.69,2.623 1.69,1.69 1.69,0.756 0.933,0 0,0"
             style="fill:#cbe7ff;fill-opacity:1;fill-rule:nonzero;stroke:none"
             id="path358" /></g><g
           id="g360"
           transform="translate(396.5655,343.0136)"><path
             d="m 0,0 h -75.275 c -0.933,0 -1.689,0.757 -1.689,1.69 0,0.933 0.756,1.689 1.689,1.689 H 0 C 0.933,3.379 1.69,2.623 1.69,1.69 1.69,0.757 0.933,0 0,0"
             style="fill:#cbe7ff;fill-opacity:1;fill-rule:nonzero;stroke:none"
             id="path362" /></g><g
           id="g364"
           transform="translate(416.8107,378.462)"><path
             d="m 0,0 h -26.451 c -1.523,0 -2.758,1.235 -2.758,2.759 0,1.523 1.235,2.758 2.758,2.758 L 0,5.517 C 1.523,5.517 2.759,4.282 2.759,2.759 2.759,1.235 1.523,0 0,0"
             style="fill:#ffffff;fill-opacity:1;fill-rule:nonzero;stroke:none"
             id="path366" /></g><g
           id="g368"
           transform="translate(350.1444,256.4964)"><path
             d="m 0,0 h -30.034 c -1.105,0 -2,0.895 -2,2 v 20.517 c 0,1.105 0.895,2 2,2 H 0 c 1.105,0 2,-0.895 2,-2 V 2 C 2,0.895 1.105,0 0,0"
             style="fill:#ffffff;fill-opacity:1;fill-rule:nonzero;stroke:none"
             id="path370" /></g><g
           id="g372"
           transform="translate(335.3345,265.0913)"><path
             d="m 0,0 c -0.169,0 -0.339,0.057 -0.478,0.172 l -16.345,13.5 c -0.32,0.264 -0.364,0.737 -0.101,1.056 0.266,0.32 0.738,0.363 1.056,0.101 L -0.013,1.733 15.439,15.178 c 0.311,0.271 0.786,0.239 1.057,-0.074 0.273,-0.312 0.239,-0.786 -0.073,-1.058 L 0.492,0.184 C 0.352,0.061 0.176,0 0,0"
             style="fill:#6880ac;fill-opacity:1;fill-rule:nonzero;stroke:none"
             id="path374" /></g><g
           id="g376"
           transform="translate(318.9888,257.0561)"><path
             d="m 0,0 c -0.186,0 -0.372,0.068 -0.517,0.207 -0.3,0.285 -0.312,0.76 -0.026,1.06 l 11.432,12.018 c 0.283,0.301 0.761,0.313 1.059,0.027 0.301,-0.286 0.313,-0.761 0.027,-1.061 L 0.543,0.233 C 0.396,0.078 0.198,0 0,0"
             style="fill:#6880ac;fill-opacity:1;fill-rule:nonzero;stroke:none"
             id="path378" /></g><g
           id="g380"
           transform="translate(351.2652,257.4956)"><path
             d="m 0,0 c -0.192,0 -0.385,0.073 -0.531,0.22 l -11.386,11.417 c -0.292,0.294 -0.292,0.769 0.002,1.061 0.294,0.293 0.768,0.292 1.06,-0.001 L 0.531,1.28 C 0.823,0.986 0.823,0.511 0.529,0.219 0.383,0.073 0.191,0 0,0"
             style="fill:#6880ac;fill-opacity:1;fill-rule:nonzero;stroke:none"
             id="path382" /></g><g
           id="g384"
           transform="translate(363.7392,281.7724)"><path
             d="m 0,0 c 0,-5.542 -4.492,-10.034 -10.034,-10.034 -5.542,0 -10.035,4.492 -10.035,10.034 0,5.542 4.493,10.034 10.035,10.034 C -4.492,10.034 0,5.542 0,0"
             style="fill:#ff5f3e;fill-opacity:1;fill-rule:nonzero;stroke:none"
             id="path386" /></g></g></g><text
       transform="scale(1,-1)"
       style="font-variant:normal;font-weight:bold;font-stretch:normal;font-size:12px;font-family:Quicksand;-inkscape-font-specification:Quicksand-Bold;writing-mode:lr-tb;fill:#ffffff;fill-opacity:1;fill-rule:nonzero;stroke:none"
       id="text390"
       x="327.80267"
       y="-254.70831"><tspan
         x="327.80267 335.36267"
         y="-254.70831"
         sodipodi:role="line"
         id="tspan388">85</tspan></text><g
       id="g392"
       transform="translate(-18.849215,-22.829296)"><g
         id="g394"
         clip-path="url(#clipPath398)"><g
           id="g400"
           transform="translate(454.4876,285.4655)"><path
             d="m 0,0 h -58.621 c -2.209,0 -4,1.791 -4,4 v 9.172 c 0,2.21 1.791,4 4,4 H 0 c 2.209,0 4,-1.79 4,-4 V 4 C 4,1.791 2.209,0 0,0"
             style="fill:#6fd282;fill-opacity:1;fill-rule:nonzero;stroke:none"
             id="path402" /></g><g
           id="g404"
           transform="translate(400.0988,289.5488)"><path
             d="m 0,0 c -0.263,0 -0.474,0.094 -0.633,0.281 -0.16,0.188 -0.231,0.422 -0.212,0.704 l 0.254,2.223 C -0.573,3.264 -0.582,3.302 -0.619,3.321 -0.657,3.339 -0.704,3.33 -0.76,3.293 L -2.589,1.97 c -0.226,-0.169 -0.46,-0.23 -0.704,-0.183 -0.244,0.046 -0.441,0.192 -0.591,0.436 -0.169,0.3 -0.201,0.563 -0.099,0.788 0.103,0.225 0.277,0.384 0.521,0.478 l 2.055,0.929 c 0.056,0.019 0.084,0.047 0.084,0.085 0,0.037 -0.028,0.065 -0.084,0.084 l -2.055,0.929 c -0.263,0.113 -0.432,0.29 -0.507,0.535 -0.074,0.243 -0.046,0.487 0.085,0.731 0.15,0.244 0.347,0.39 0.591,0.437 0.244,0.046 0.478,-0.005 0.704,-0.155 L -0.76,5.713 c 0.056,-0.038 0.103,-0.047 0.141,-0.028 0.037,0.018 0.046,0.056 0.028,0.112 l -0.254,2.224 c -0.019,0.281 0.057,0.516 0.226,0.703 0.169,0.188 0.394,0.282 0.675,0.282 0.263,0 0.479,-0.094 0.648,-0.282 C 0.873,8.537 0.938,8.302 0.9,8.021 L 0.647,5.797 C 0.628,5.741 0.637,5.703 0.676,5.685 0.713,5.666 0.76,5.675 0.816,5.713 l 1.83,1.323 C 2.87,7.205 3.11,7.265 3.363,7.219 3.616,7.172 3.809,7.026 3.94,6.782 4.108,6.482 4.142,6.22 4.038,5.994 3.935,5.769 3.761,5.61 3.518,5.516 L 1.464,4.587 C 1.407,4.568 1.379,4.54 1.379,4.503 1.379,4.465 1.407,4.437 1.464,4.418 L 3.518,3.489 C 3.78,3.377 3.954,3.198 4.038,2.955 4.123,2.711 4.09,2.466 3.94,2.223 3.809,1.979 3.616,1.833 3.363,1.787 3.11,1.74 2.87,1.792 2.646,1.941 L 0.816,3.293 C 0.76,3.33 0.713,3.339 0.676,3.321 0.637,3.302 0.628,3.264 0.647,3.208 L 0.9,0.985 C 0.938,0.703 0.868,0.469 0.69,0.281 0.51,0.094 0.281,0 0,0"
             style="fill:#ffffff;fill-opacity:1;fill-rule:nonzero;stroke:none"
             id="path406" /></g><g
           id="g408"
           transform="translate(412.2235,289.5488)"><path
             d="m 0,0 c -0.263,0 -0.474,0.094 -0.633,0.281 -0.16,0.188 -0.231,0.422 -0.212,0.704 l 0.254,2.223 C -0.573,3.264 -0.582,3.302 -0.619,3.321 -0.657,3.339 -0.704,3.33 -0.76,3.293 L -2.589,1.97 c -0.226,-0.169 -0.46,-0.23 -0.704,-0.183 -0.244,0.046 -0.441,0.192 -0.591,0.436 -0.169,0.3 -0.201,0.563 -0.099,0.788 0.103,0.225 0.277,0.384 0.521,0.478 l 2.055,0.929 c 0.056,0.019 0.084,0.047 0.084,0.085 0,0.037 -0.028,0.065 -0.084,0.084 l -2.055,0.929 c -0.263,0.113 -0.432,0.29 -0.507,0.535 -0.074,0.243 -0.046,0.487 0.085,0.731 0.15,0.244 0.347,0.39 0.591,0.437 0.244,0.046 0.478,-0.005 0.704,-0.155 L -0.76,5.713 c 0.056,-0.038 0.103,-0.047 0.141,-0.028 0.037,0.018 0.046,0.056 0.028,0.112 l -0.254,2.224 c -0.019,0.281 0.057,0.516 0.226,0.703 0.169,0.188 0.394,0.282 0.675,0.282 0.263,0 0.479,-0.094 0.648,-0.282 C 0.873,8.537 0.938,8.302 0.9,8.021 L 0.647,5.797 C 0.628,5.741 0.637,5.703 0.676,5.685 0.713,5.666 0.76,5.675 0.816,5.713 l 1.83,1.323 C 2.87,7.205 3.11,7.265 3.364,7.219 3.616,7.172 3.808,7.026 3.94,6.782 4.109,6.482 4.142,6.22 4.038,5.994 3.935,5.769 3.761,5.61 3.518,5.516 L 1.464,4.587 C 1.407,4.568 1.379,4.54 1.379,4.503 1.379,4.465 1.407,4.437 1.464,4.418 L 3.518,3.489 C 3.78,3.377 3.954,3.198 4.038,2.955 4.123,2.711 4.09,2.466 3.94,2.223 3.808,1.979 3.616,1.833 3.364,1.787 3.11,1.74 2.87,1.792 2.646,1.941 L 0.816,3.293 C 0.76,3.33 0.713,3.339 0.676,3.321 0.637,3.302 0.628,3.264 0.647,3.208 L 0.9,0.985 C 0.938,0.703 0.868,0.469 0.69,0.281 0.51,0.094 0.281,0 0,0"
             style="fill:#ffffff;fill-opacity:1;fill-rule:nonzero;stroke:none"
             id="path410" /></g><g
           id="g412"
           transform="translate(424.3481,289.5488)"><path
             d="m 0,0 c -0.263,0 -0.474,0.094 -0.633,0.281 -0.16,0.188 -0.231,0.422 -0.212,0.704 l 0.254,2.223 C -0.573,3.264 -0.582,3.302 -0.619,3.321 -0.657,3.339 -0.704,3.33 -0.76,3.293 L -2.589,1.97 c -0.226,-0.169 -0.46,-0.23 -0.704,-0.183 -0.244,0.046 -0.441,0.192 -0.591,0.436 -0.169,0.3 -0.201,0.563 -0.099,0.788 0.103,0.225 0.277,0.384 0.521,0.478 l 2.055,0.929 c 0.056,0.019 0.084,0.047 0.084,0.085 0,0.037 -0.028,0.065 -0.084,0.084 l -2.055,0.929 c -0.263,0.113 -0.432,0.29 -0.507,0.535 -0.074,0.243 -0.046,0.487 0.085,0.731 0.15,0.244 0.347,0.39 0.591,0.437 0.244,0.046 0.478,-0.005 0.704,-0.155 L -0.76,5.713 c 0.056,-0.038 0.103,-0.047 0.141,-0.028 0.037,0.018 0.046,0.056 0.028,0.112 l -0.254,2.224 c -0.019,0.281 0.057,0.516 0.226,0.703 0.169,0.188 0.394,0.282 0.675,0.282 0.263,0 0.479,-0.094 0.648,-0.282 C 0.873,8.537 0.938,8.302 0.9,8.021 L 0.647,5.797 C 0.628,5.741 0.637,5.703 0.676,5.685 0.713,5.666 0.76,5.675 0.816,5.713 l 1.83,1.323 C 2.87,7.205 3.11,7.265 3.363,7.219 3.616,7.172 3.809,7.026 3.94,6.782 4.108,6.482 4.142,6.22 4.038,5.994 3.935,5.769 3.761,5.61 3.518,5.516 L 1.464,4.587 C 1.407,4.568 1.379,4.54 1.379,4.503 1.379,4.465 1.407,4.437 1.464,4.418 L 3.518,3.489 C 3.78,3.377 3.954,3.198 4.038,2.955 4.123,2.711 4.09,2.466 3.94,2.223 3.809,1.979 3.616,1.833 3.363,1.787 3.11,1.74 2.87,1.792 2.646,1.941 L 0.816,3.293 C 0.76,3.33 0.713,3.339 0.676,3.321 0.637,3.302 0.628,3.264 0.647,3.208 L 0.9,0.985 C 0.938,0.703 0.868,0.469 0.69,0.281 0.51,0.094 0.281,0 0,0"
             style="fill:#ffffff;fill-opacity:1;fill-rule:nonzero;stroke:none"
             id="path414" /></g><g
           id="g416"
           transform="translate(436.4728,289.5488)"><path
             d="m 0,0 c -0.263,0 -0.474,0.094 -0.633,0.281 -0.16,0.188 -0.231,0.422 -0.212,0.704 l 0.254,2.223 C -0.573,3.264 -0.582,3.302 -0.619,3.321 -0.657,3.339 -0.704,3.33 -0.76,3.293 L -2.589,1.97 c -0.226,-0.169 -0.46,-0.23 -0.704,-0.183 -0.244,0.046 -0.441,0.192 -0.591,0.436 -0.169,0.3 -0.201,0.563 -0.099,0.788 0.103,0.225 0.277,0.384 0.521,0.478 l 2.055,0.929 c 0.056,0.019 0.084,0.047 0.084,0.085 0,0.037 -0.028,0.065 -0.084,0.084 l -2.055,0.929 c -0.263,0.113 -0.432,0.29 -0.507,0.535 -0.074,0.243 -0.046,0.487 0.085,0.731 0.15,0.244 0.347,0.39 0.591,0.437 0.244,0.046 0.478,-0.005 0.704,-0.155 L -0.76,5.713 c 0.056,-0.038 0.103,-0.047 0.141,-0.028 0.037,0.018 0.046,0.056 0.028,0.112 l -0.254,2.224 c -0.019,0.281 0.057,0.516 0.226,0.703 0.169,0.188 0.394,0.282 0.675,0.282 0.263,0 0.479,-0.094 0.648,-0.282 C 0.873,8.537 0.938,8.302 0.9,8.021 L 0.647,5.797 C 0.628,5.741 0.637,5.703 0.676,5.685 0.713,5.666 0.76,5.675 0.816,5.713 l 1.83,1.323 C 2.87,7.205 3.11,7.265 3.363,7.219 3.616,7.172 3.809,7.026 3.94,6.782 4.109,6.482 4.142,6.22 4.038,5.994 3.935,5.769 3.761,5.61 3.518,5.516 L 1.464,4.587 C 1.407,4.568 1.379,4.54 1.379,4.503 1.379,4.465 1.407,4.437 1.464,4.418 L 3.518,3.489 C 3.78,3.377 3.954,3.198 4.038,2.955 4.123,2.711 4.09,2.466 3.94,2.223 3.809,1.979 3.616,1.833 3.363,1.787 3.11,1.74 2.87,1.792 2.646,1.941 L 0.816,3.293 C 0.76,3.33 0.713,3.339 0.676,3.321 0.637,3.302 0.628,3.264 0.647,3.208 L 0.9,0.985 C 0.938,0.703 0.868,0.469 0.69,0.281 0.51,0.094 0.281,0 0,0"
             style="fill:#ffffff;fill-opacity:1;fill-rule:nonzero;stroke:none"
             id="path418" /></g><g
           id="g420"
           transform="translate(448.5974,289.5488)"><path
             d="m 0,0 c -0.263,0 -0.474,0.094 -0.633,0.281 -0.16,0.188 -0.231,0.422 -0.212,0.704 l 0.254,2.223 C -0.573,3.264 -0.582,3.302 -0.619,3.321 -0.657,3.339 -0.704,3.33 -0.76,3.293 L -2.589,1.97 c -0.226,-0.169 -0.46,-0.23 -0.704,-0.183 -0.244,0.046 -0.441,0.192 -0.591,0.436 -0.169,0.3 -0.201,0.563 -0.099,0.788 0.103,0.225 0.277,0.384 0.521,0.478 l 2.055,0.929 c 0.056,0.019 0.084,0.047 0.084,0.085 0,0.037 -0.028,0.065 -0.084,0.084 l -2.055,0.929 c -0.263,0.113 -0.432,0.29 -0.507,0.535 -0.074,0.243 -0.046,0.487 0.085,0.731 0.15,0.244 0.347,0.39 0.591,0.437 0.244,0.046 0.478,-0.005 0.704,-0.155 L -0.76,5.713 c 0.056,-0.038 0.103,-0.047 0.141,-0.028 0.037,0.018 0.046,0.056 0.028,0.112 l -0.254,2.224 c -0.019,0.281 0.057,0.516 0.226,0.703 0.169,0.188 0.394,0.282 0.675,0.282 0.263,0 0.479,-0.094 0.648,-0.282 C 0.873,8.537 0.938,8.302 0.9,8.021 L 0.647,5.797 C 0.628,5.741 0.637,5.703 0.676,5.685 0.713,5.666 0.76,5.675 0.816,5.713 l 1.83,1.323 C 2.87,7.205 3.11,7.265 3.363,7.219 3.616,7.172 3.809,7.026 3.94,6.782 4.109,6.482 4.142,6.22 4.038,5.994 3.935,5.769 3.761,5.61 3.518,5.516 L 1.464,4.587 C 1.408,4.568 1.379,4.54 1.379,4.503 1.379,4.465 1.408,4.437 1.464,4.418 L 3.518,3.489 C 3.78,3.377 3.954,3.198 4.038,2.955 4.123,2.711 4.09,2.466 3.94,2.223 3.809,1.979 3.616,1.833 3.363,1.787 3.11,1.74 2.87,1.792 2.646,1.941 L 0.816,3.293 C 0.76,3.33 0.713,3.339 0.676,3.321 0.637,3.302 0.628,3.264 0.647,3.208 L 0.9,0.985 C 0.938,0.703 0.868,0.469 0.69,0.281 0.51,0.094 0.281,0 0,0"
             style="fill:#b6f7fb;fill-opacity:1;fill-rule:nonzero;stroke:none"
             id="path422" /></g></g></g></g></svg>
